General

Format                         : MPEG-4
Format profile                 : Base Media
Codec ID                       : isom
File size                      : 83.3 MiB
Duration                       : 3mn 39s
Overall bit rate mode          : Variable
Overall bit rate               : 3 181 Kbps
Encoded date                   : UTC 2012-08-02 04:44:15
Tagged date                    : UTC 2012-08-02 04:44:15

Video
ID                             : 1
Format                         : AVC
Format/Info                    : Advanced Video Codec
Format profile                 : High@L3.0
Format settings, CABAC         : Yes
Format settings, ReFrames      : 2 frames
Codec ID                       : avc1
Codec ID/Info                  : Advanced Video Coding
Duration                       : 3mn 39s
Bit rate                       : 2 986 Kbps
Maximum bit rate               : 9 640 Kbps
Width                          : 720 pixels
Height                         : 480 pixels
Display aspect ratio           : 4:3
Original display aspect ratio  : 4:3
Frame rate mode                : Constant
Frame rate                     : 29.970 fps
Standard                       : NTSC
Color space                    : YUV
Chroma subsampling             : 4:2:0
Bit depth                      : 8 bits
Scan type                      : Progressive
Bits/(Pixel*Frame)             : 0.288
Stream size                    : 78.0 MiB (94%)


Audio
ID                             : 2
Format                         : AAC
Format/Info                    : Advanced Audio Codec
Format profile                 : LC
Codec ID                       : 40
Duration                       : 3mn 39s
Bit rate mode                  : Variable
Bit rate                       : 192 Kbps
Maximum bit rate               : 212 Kbps
Channel(s)                     : 2 channels
Channel positions              : Front: L R
Sampling rate                  : 48.0 KHz
Compression mode               : Lossy
Delay relative to video        : -667ms
Stream size                    : 5.03 MiB (6%)